PathFileType	4	(X/Y/Z)	SUBJ89_0_static_RCNL2025.trc
DataRate	CameraRate	NumFrames	NumMarkers	Units	OrigDataRate	OrigDataStartFrame	OrigNumFrames
100	100	12	25	mm	100	1	267
Frame#	Time	R_Shoulder			L_Shoulder			C7			J_Notch			R_Elbow			L_Elbow			R_Wrist			L_Wrist			R_Asis			L_Asis			Sacral			Thoracic			Sternum			R_Thigh_Lateral			R_Knee_Lateral			R_Shank_Lateral			R_Ankle_Lateral			R_Heel			R_Toe			L_Thigh_Lateral			L_Knee_Lateral			L_Shank_Lateral			L_Ankle_Lateral			L_Heel			L_Toe		
		X1	Y1	Z1	X2	Y2	Z2	X3	Y3	Z3	X4	Y4	Z4	X5	Y5	Z5	X6	Y6	Z6	X7	Y7	Z7	X8	Y8	Z8	X9	Y9	Z9	X10	Y10	Z10	X11	Y11	Z11	X12	Y12	Z12	X13	Y13	Z13	X14	Y14	Z14	X15	Y15	Z15	X16	Y16	Z16	X17	Y17	Z17	X18	Y18	Z18	X19	Y19	Z19	X20	Y20	Z20	X21	Y21	Z21	X22	Y22	Z22	X23	Y23	Z23	X24	Y24	Z24	X25	Y25	Z25
1	0.00000000	-228.836029	1457.268677	-47.207306	-253.830658	1453.380615	-431.908691	-293.467987	1515.703857	-243.465118	-162.709900	1401.297119	-240.067978	-246.052567	1207.770874	144.204773	-219.033234	1193.624512	-613.345093	-160.325233	986.482849	273.974068	-113.769653	987.154755	-745.195892	-147.592148	1002.295776	-109.372742	-139.167419	1007.219849	-350.754852	-314.306183	1050.538818	-222.308945	-360.225800	1333.197266	-230.973083	-122.794266	1253.988037	-248.348404	-210.320633	619.528198	-37.168907	-228.864365	501.364105	-89.573235	-282.414795	284.074127	-32.141602	-317.019653	74.950684	-95.902863	-352.066467	64.364067	-141.857956	-156.958817	35.887867	-100.980568	-191.608734	578.033813	-446.406342	-205.994064	492.697937	-373.826782	-265.121643	266.726013	-428.522156	-288.039795	67.421059	-366.025269	-324.929901	72.486191	-317.522827	-131.329025	35.466812	-360.173248
2	0.01000000	-228.888306	1457.180542	-47.161850	-253.897049	1453.429565	-431.880341	-293.526672	1515.754028	-243.482407	-162.828644	1401.295776	-240.117096	-246.273209	1207.572754	144.087051	-219.086502	1193.627563	-613.343445	-160.465561	986.229706	273.751915	-113.642315	987.195740	-745.124786	-147.595230	1002.299805	-109.370712	-139.241852	1007.183411	-350.714050	-314.454651	1050.563843	-222.326965	-360.288940	1333.187134	-231.035263	-122.921959	1253.996216	-248.389084	-210.486618	619.564087	-37.211369	-228.903152	501.412689	-89.572990	-282.360229	284.026306	-32.181156	-317.029266	74.925117	-95.905495	-352.011780	64.348679	-141.803696	-156.961395	35.898796	-100.988602	-191.604095	578.028137	-446.426239	-205.990219	492.708801	-373.805359	-265.102386	266.729401	-428.436615	-288.122498	67.437187	-366.032959	-325.039948	72.557648	-317.479095	-131.346939	35.516785	-360.164215
3	0.02000000	-228.944458	1457.129639	-47.121391	-253.873001	1453.434082	-431.904114	-293.597168	1515.714355	-243.476318	-162.918900	1401.280029	-240.060394	-246.322266	1207.376099	144.009674	-219.114471	1193.689087	-613.280273	-160.658508	985.982056	273.503120	-113.604652	987.174561	-744.995422	-147.596527	1002.305298	-109.380936	-139.240311	1007.229919	-350.686462	-314.444763	1050.538086	-222.348877	-360.298645	1333.133667	-231.018692	-122.984344	1254.046997	-248.343903	-210.433060	619.584167	-37.195534	-228.805511	501.395325	-89.531982	-282.384338	284.039642	-32.178532	-317.014191	74.953865	-95.911217	-351.980286	64.324051	-141.835709	-156.939606	35.880100	-100.994568	-191.548477	578.040771	-446.416901	-205.975937	492.705902	-373.792297	-265.101410	266.743134	-428.436188	-288.083191	67.417229	-366.068298	-324.925323	72.485748	-317.544830	-131.337952	35.542740	-360.182281
4	0.03000000	-229.088898	1457.063599	-47.139778	-253.914749	1453.447632	-431.901947	-293.698151	1515.761597	-243.405472	-162.918900	1401.263062	-240.032761	-246.420486	1207.107422	143.821564	-219.103851	1193.662354	-613.185913	-160.809013	985.671844	273.279091	-113.483120	987.166931	-744.927734	-147.643936	1002.302795	-109.419060	-139.251465	1007.202148	-350.752228	-314.434509	1050.553345	-222.350693	-360.435303	1333.166260	-231.056168	-122.916382	1254.054932	-248.417435	-210.394714	619.574036	-37.217030	-228.802856	501.429840	-89.522766	-282.324127	284.030487	-32.188934	-317.029663	74.882858	-95.896477	-351.997833	64.347687	-141.822891	-157.000931	35.836769	-100.962425	-191.494019	578.020874	-446.369446	-205.993439	492.697845	-373.807434	-265.099335	266.716370	-428.467651	-288.034912	67.481262	-366.054260	-325.012543	72.519310	-317.426361	-131.352570	35.577332	-360.130127
5	0.04000000	-229.049652	1457.002075	-47.135910	-254.002274	1453.486328	-431.895386	-293.718231	1515.765137	-243.393127	-163.050430	1401.201050	-240.129364	-246.831924	1206.930054	143.923615	-219.089722	1193.634888	-613.203369	-160.999809	985.403442	273.091019	-113.461174	987.184784	-744.893982	-147.641312	1002.292358	-109.424194	-139.328781	1007.178772	-350.831848	-314.511383	1050.498779	-222.414536	-360.343658	1333.088867	-231.124847	-122.990356	1254.065552	-248.496460	-210.372772	619.561218	-37.267151	-228.897903	501.413116	-89.572586	-282.314850	284.014008	-32.204258	-317.032806	74.893387	-95.905205	-352.051086	64.375381	-141.858154	-157.004944	35.834396	-100.985123	-191.458527	577.964111	-446.402161	-205.994797	492.693512	-373.806641	-264.988159	266.708038	-428.505646	-288.053345	67.454544	-366.005615	-325.008240	72.492256	-317.439301	-131.394562	35.612953	-360.086121
6	0.05000000	-229.062424	1456.924316	-47.132336	-254.050720	1453.515259	-431.881927	-293.729279	1515.747314	-243.444199	-163.041000	1401.274048	-240.115067	-246.762863	1206.772827	143.581070	-219.106293	1193.626953	-613.174805	-161.171844	985.118958	272.844124	-113.366669	987.185364	-744.800079	-147.632919	1002.285034	-109.427490	-139.244370	1007.224854	-350.836456	-314.516876	1050.496826	-222.417831	-360.328674	1333.082275	-231.131104	-123.122971	1254.069214	-248.550247	-210.349777	619.546082	-37.181644	-228.891785	501.397308	-89.580017	-282.323822	284.022949	-32.195152	-316.994141	74.901314	-95.924416	-352.016144	64.351669	-141.805786	-156.950729	35.884487	-100.987793	-191.493698	577.956299	-446.360901	-205.985550	492.691620	-373.782837	-265.148682	266.634674	-428.522949	-288.045990	67.447632	-366.062408	-325.074951	72.544830	-317.416809	-131.348175	35.649929	-360.114502
7	0.06000000	-229.122406	1456.928711	-47.116028	-254.095154	1453.512939	-431.887238	-293.746948	1515.742676	-243.431473	-163.057907	1401.203125	-240.110229	-246.907135	1206.627197	143.451126	-219.096573	1193.576538	-613.201721	-161.211021	984.874237	272.733917	-113.325142	987.180298	-744.772491	-147.740448	1002.299194	-109.488640	-139.299728	1007.248291	-350.754944	-314.570435	1050.572754	-222.451630	-360.496918	1333.123901	-231.121750	-123.147972	1254.061768	-248.546356	-210.362595	619.605286	-37.257072	-228.840591	501.462158	-89.625275	-282.282776	284.059357	-32.203632	-316.998932	74.913376	-95.924156	-352.064850	64.347343	-141.840607	-156.940536	35.856308	-101.022118	-191.542252	577.967651	-446.327118	-205.970337	492.678314	-373.811371	-265.150879	266.669250	-428.389801	-288.045258	67.402809	-366.025238	-325.132385	72.601578	-317.368835	-131.343018	35.671410	-360.142883
8	0.07000000	-229.151657	1456.835693	-47.100887	-254.192963	1453.502563	-431.905609	-293.803223	1515.737549	-243.429565	-163.177597	1401.221436	-240.148834	-247.043793	1206.317017	143.302292	-219.172714	1193.581665	-613.141541	-161.314827	984.669434	272.462303	-113.274303	987.142609	-744.689880	-147.762192	1002.311523	-109.482574	-139.301636	1007.223022	-350.819305	-314.575134	1050.549072	-222.523224	-360.588287	1333.155151	-231.074020	-123.223778	1254.125488	-248.633957	-210.388992	619.593750	-37.277763	-228.834579	501.464142	-89.628433	-282.278320	284.055847	-32.212456	-317.012482	74.943520	-95.901627	-352.015869	64.349785	-141.805252	-156.889206	35.856056	-101.058060	-191.550247	577.963013	-446.340240	-206.006760	492.625580	-373.818359	-264.977753	266.723236	-428.538391	-288.046875	67.403076	-366.020752	-325.125763	72.562813	-317.396271	-131.351715	35.682747	-360.153656
9	0.08000000	-229.192307	1456.767456	-47.073433	-254.199905	1453.436523	-431.898468	-293.919189	1515.774048	-243.471878	-163.259003	1401.236938	-240.091049	-247.258453	1206.191772	143.147522	-219.220230	1193.518433	-613.168518	-161.365540	984.455231	272.248367	-113.240238	987.112488	-744.589935	-147.758072	1002.303284	-109.478111	-139.309387	1007.162170	-350.857056	-314.580780	1050.509277	-222.480759	-360.561737	1333.113892	-231.098694	-123.327881	1254.028564	-248.584457	-210.479309	619.584961	-37.205757	-228.896500	501.409821	-89.589127	-282.357910	284.059662	-32.205421	-317.037659	74.933121	-95.911232	-352.023590	64.313324	-141.893143	-156.982361	35.829700	-100.969154	-191.535995	577.944458	-446.368042	-205.906937	492.658295	-373.765076	-265.052826	266.620514	-428.512512	-288.016418	67.433388	-366.099731	-325.086823	72.516014	-317.399414	-131.387756	35.722809	-360.119476
10	0.09000000	-229.367157	1456.685791	-47.026768	-254.263702	1453.393188	-431.873749	-293.936066	1515.714844	-243.439819	-163.273575	1401.221069	-240.067200	-247.289322	1205.955200	143.025345	-219.298401	1193.458740	-613.118286	-161.408409	984.221832	272.066055	-113.230629	987.068726	-744.502167	-147.756058	1002.331055	-109.502914	-139.255264	1007.148926	-350.760345	-314.548981	1050.434570	-222.509445	-360.622620	1333.045898	-231.171188	-123.355659	1254.030396	-248.562775	-210.523209	619.571228	-37.294373	-228.984375	501.411102	-89.644409	-282.407959	284.070618	-32.187710	-317.032501	74.930771	-95.918739	-352.009125	64.303658	-141.920181	-157.009827	35.841942	-100.952431	-191.474518	577.962158	-446.435272	-205.893127	492.664825	-373.776855	-265.068909	266.576935	-428.543823	-288.010895	67.424377	-366.131470	-325.114716	72.557335	-317.453735	-131.393585	35.737469	-360.102417
11	0.10000000	-229.456268	1456.608521	-46.964260	-254.438675	1453.403442	-431.851624	-293.944122	1515.697754	-243.422379	-163.386200	1401.205811	-240.105789	-247.381592	1205.724121	142.847885	-219.395157	1193.402832	-613.020264	-161.494347	983.953339	271.809158	-113.181301	987.031769	-744.404083	-147.759232	1002.335510	-109.494568	-139.302521	1007.188171	-350.851776	-314.608398	1050.461670	-222.597015	-360.708618	1332.980591	-231.118073	-123.432709	1254.124268	-248.583801	-210.541595	619.564575	-37.327412	-228.997147	501.417328	-89.638977	-282.407013	284.078827	-32.196590	-317.036499	74.872139	-95.916878	-352.021698	64.319176	-141.884933	-157.004578	35.830780	-100.957588	-191.455124	577.967957	-446.430542	-205.829681	492.684418	-373.806793	-264.873627	266.646362	-428.557251	-288.034729	67.455170	-366.088043	-325.128082	72.541267	-317.499237	-131.419556	35.772930	-360.138306
12	0.11000000	-229.579926	1456.567261	-46.894714	-254.444321	1453.383179	-431.861237	-294.049072	1515.712036	-243.361862	-163.477249	1401.214478	-240.016937	-247.527237	1205.505859	142.732269	-219.466217	1193.322998	-612.935913	-161.616432	983.700012	271.505363	-113.233631	986.981537	-744.317322	-147.804764	1002.329834	-109.540016	-139.243561	1007.215698	-350.935699	-314.599762	1050.446167	-222.620941	-360.720673	1332.978149	-231.080215	-123.442848	1254.134155	-248.588806	-210.645889	619.600952	-37.318188	-228.976395	501.397766	-89.658821	-282.409729	284.077087	-32.177853	-317.094299	74.926842	-95.957619	-351.976746	64.297691	-141.843109	-157.000183	35.828953	-100.954041	-191.394989	577.926331	-446.409332	-205.819351	492.669678	-373.788177	-264.799286	266.660889	-428.562286	-287.994507	67.437187	-366.107452	-325.064026	72.522972	-317.429688	-131.417755	35.867809	-360.142822
